<svg xmlns="http://www.w3.org/2000/svg" xmlns:xlink="http://www.w3.org/1999/xlink" width="740" height="369.07"><rect width="740" height="369.07" rx="0" ry="0" class="a"/><svg height="369.07" viewBox="0 0 74 36.907" width="740" xmlns="http://www.w3.org/2000/svg" xmlns:xlink="http://www.w3.org/1999/xlink"><style>@keyframes h{0%{transform:translateX(0)}1.4%{transform:translateX(-74px)}4.3%{transform:translateX(-148px)}5.2%{transform:translateX(-222px)}6.6%{transform:translateX(-296px)}7.9%{transform:translateX(-370px)}9.2%{transform:translateX(-444px)}11.1%{transform:translateX(-518px)}11.4%{transform:translateX(-666px)}18.7%{transform:translateX(-740px)}19.4%{transform:translateX(-814px)}20.1%{transform:translateX(-888px)}20.7%{transform:translateX(-962px)}21.7%{transform:translateX(-1036px)}24%{transform:translateX(-1110px)}24.2%{transform:translateX(-1258px)}39.8%{transform:translateX(-1332px)}40.7%{transform:translateX(-1406px)}41.9%{transform:translateX(-1480px)}43.2%{transform:translateX(-1554px)}45.7%{transform:translateX(-1628px)}51.8%{transform:translateX(-1702px)}52%{transform:translateX(-1924px)}60.3%{transform:translateX(-1998px)}60.9%{transform:translateX(-2072px)}62%{transform:translateX(-2146px)}62.5%{transform:translateX(-2220px)}64.2%{transform:translateX(-2294px)}64.9%{transform:translateX(-2368px)}65.4%{transform:translateX(-2442px)}65.8%{transform:translateX(-2516px)}66.5%{transform:translateX(-2590px)}68.8%{transform:translateX(-2664px)}69%{transform:translateX(-2812px)}93.6%{transform:translateX(-2886px)}95.3%{transform:translateX(-2960px)}95.9%{transform:translateX(-3034px)}97%{transform:translateX(-3108px)}to{transform:translateX(-3256px)}}.a{fill:#282d35}.c,.d,.e{fill:#d290e4;white-space:pre}.d,.e{fill:#71bef2}.e{fill:#b9c0cb}</style><g font-family="Monaco,Consolas,Menlo,'Bitstream Vera Sans Mono','Powerline Symbols',monospace" font-size="1.67"><defs><symbol id="1"><text y="1.67" class="c">~/p/pagebreak</text><text x="13.026" y="1.67" class="d">$</text></symbol><symbol id="2"><text y="1.67" class="c">~/p/pagebreak</text><text x="13.026" y="1.67" class="d">$</text><text x="15.03" y="1.67" class="e">l</text></symbol><symbol id="3"><text y="1.67" class="c">~/p/pagebreak</text><text x="13.026" y="1.67" class="d">$</text><text x="15.03" y="1.67" class="e">ls</text></symbol><symbol id="4"><text y="1.67" class="c">~/p/pagebreak</text><text x="13.026" y="1.67" class="d">$</text><text x="15.03" y="1.67" class="e">ls</text><text x="18.036" y="1.67" class="e">-</text></symbol><symbol id="5"><text y="1.67" class="c">~/p/pagebreak</text><text x="13.026" y="1.67" class="d">$</text><text x="15.03" y="1.67" class="e">ls</text><text x="18.036" y="1.67" class="e">-1</text></symbol><symbol id="6"><text y="1.67" class="e">build.zig</text></symbol><symbol id="7"><text y="1.67" class="d">src</text></symbol><symbol id="8"><text y="1.67" class="d">zig-cache</text></symbol><symbol id="9"><text y="1.67" class="d">zig-out</text></symbol><symbol id="10"><text y="1.67" class="c">~/p/pagebreak</text><text x="13.026" y="1.67" class="d">$</text><text x="15.03" y="1.67" class="e">clear</text></symbol><symbol id="11"><text y="1.67" class="c">~/p/pagebreak</text><text x="13.026" y="1.67" class="d">$</text><text x="15.03" y="1.67" class="e">pagebreak</text></symbol><symbol id="12"><text y="1.67" class="c">~/p/pagebreak</text><text x="13.026" y="1.67" class="d">$</text><text x="15.03" y="1.67" class="e">exit</text></symbol><symbol id="a"><path fill="transparent" d="M0 0h74v17H0z"/></symbol><symbol id="b"><path fill="#6f7683" d="M0 0h1.102v2.171H0z"/></symbol></defs><path class="a" d="M0 0h74v36.907H0z"/><g style="animation-duration:13.64292s;animation-iteration-count:infinite;animation-name:h;animation-timing-function:steps(1,end)"><svg width="3330"><svg><use xlink:href="#a"/><use xlink:href="#b" x="-.004"/></svg><svg x="74"><use xlink:href="#a"/><use xlink:href="#b" x="14.996"/><use xlink:href="#1"/></svg><svg x="148"><use xlink:href="#a"/><use xlink:href="#b" x="15.996"/><use xlink:href="#2"/></svg><svg x="222"><use xlink:href="#a"/><use xlink:href="#b" x="16.996"/><use xlink:href="#3"/></svg><svg x="296"><use xlink:href="#a"/><use xlink:href="#b" x="17.996"/><use xlink:href="#3"/></svg><svg x="370"><use xlink:href="#a"/><use xlink:href="#b" x="18.996"/><use xlink:href="#4"/></svg><svg x="444"><use xlink:href="#a"/><use xlink:href="#b" x="19.996"/><use xlink:href="#5"/></svg><svg x="518"><use xlink:href="#a"/><use xlink:href="#b" x="-.004" y="2.146"/><use xlink:href="#5"/></svg><svg x="592"><use xlink:href="#a"/><use xlink:href="#b" x="-.004" y="10.83"/><use xlink:href="#5"/><use xlink:href="#6" y="2.171"/><use xlink:href="#7" y="4.342"/><use xlink:href="#8" y="6.513"/><use xlink:href="#9" y="8.684"/></svg><svg x="666"><use xlink:href="#a"/><use xlink:href="#b" x="14.996" y="10.83"/><use xlink:href="#5"/><use xlink:href="#6" y="2.171"/><use xlink:href="#7" y="4.342"/><use xlink:href="#8" y="6.513"/><use xlink:href="#9" y="8.684"/><use xlink:href="#1" y="10.855"/></svg><svg x="740"><use xlink:href="#a"/><use xlink:href="#b" x="15.996" y="10.83"/><use xlink:href="#5"/><use xlink:href="#6" y="2.171"/><use xlink:href="#7" y="4.342"/><use xlink:href="#8" y="6.513"/><use xlink:href="#9" y="8.684"/><text y="12.525" class="c">~/p/pagebreak</text><text x="13.026" y="12.525" class="d">$</text><text x="15.03" y="12.525" class="e">c</text></svg><svg x="814"><use xlink:href="#a"/><use xlink:href="#b" x="16.996" y="10.83"/><use xlink:href="#5"/><use xlink:href="#6" y="2.171"/><use xlink:href="#7" y="4.342"/><use xlink:href="#8" y="6.513"/><use xlink:href="#9" y="8.684"/><text y="12.525" class="c">~/p/pagebreak</text><text x="13.026" y="12.525" class="d">$</text><text x="15.03" y="12.525" class="e">cl</text></svg><svg x="888"><use xlink:href="#a"/><use xlink:href="#b" x="17.996" y="10.83"/><use xlink:href="#5"/><use xlink:href="#6" y="2.171"/><use xlink:href="#7" y="4.342"/><use xlink:href="#8" y="6.513"/><use xlink:href="#9" y="8.684"/><text y="12.525" class="c">~/p/pagebreak</text><text x="13.026" y="12.525" class="d">$</text><text x="15.03" y="12.525" class="e">cle</text></svg><svg x="962"><use xlink:href="#a"/><use xlink:href="#b" x="18.996" y="10.83"/><use xlink:href="#5"/><use xlink:href="#6" y="2.171"/><use xlink:href="#7" y="4.342"/><use xlink:href="#8" y="6.513"/><use xlink:href="#9" y="8.684"/><text y="12.525" class="c">~/p/pagebreak</text><text x="13.026" y="12.525" class="d">$</text><text x="15.03" y="12.525" class="e">clea</text></svg><svg x="1036"><use xlink:href="#a"/><use xlink:href="#b" x="19.996" y="10.83"/><use xlink:href="#5"/><use xlink:href="#6" y="2.171"/><use xlink:href="#7" y="4.342"/><use xlink:href="#8" y="6.513"/><use xlink:href="#9" y="8.684"/><use xlink:href="#10" y="10.855"/></svg><svg x="1110"><use xlink:href="#a"/><use xlink:href="#b" x="-.004" y="13.001"/><use xlink:href="#5"/><use xlink:href="#6" y="2.171"/><use xlink:href="#7" y="4.342"/><use xlink:href="#8" y="6.513"/><use xlink:href="#9" y="8.684"/><use xlink:href="#10" y="10.855"/></svg><svg x="1184"><use xlink:href="#a"/><use xlink:href="#b" x="-.004"/></svg><svg x="1258"><use xlink:href="#a"/><use xlink:href="#b" x="14.996"/><use xlink:href="#1"/></svg><svg x="1332"><use xlink:href="#a"/><use xlink:href="#b" x="15.996"/><use xlink:href="#2"/></svg><svg x="1406"><use xlink:href="#a"/><use xlink:href="#b" x="16.996"/><use xlink:href="#3"/></svg><svg x="1480"><use xlink:href="#a"/><use xlink:href="#b" x="17.996"/><use xlink:href="#3"/></svg><svg x="1554"><use xlink:href="#a"/><use xlink:href="#b" x="18.996"/><use xlink:href="#4"/></svg><svg x="1628"><use xlink:href="#a"/><use xlink:href="#b" x="19.996"/><use xlink:href="#5"/></svg><svg x="1702"><use xlink:href="#a"/><use xlink:href="#b" x="-.004" y="2.146"/><use xlink:href="#5"/></svg><svg x="1776"><use xlink:href="#a"/><use xlink:href="#b" x="-.004" y="8.659"/><use xlink:href="#5"/><use xlink:href="#6" y="2.171"/><use xlink:href="#7" y="4.342"/><use xlink:href="#8" y="6.513"/></svg><svg x="1850"><use xlink:href="#a"/><use xlink:href="#b" x="-.004" y="10.83"/><use xlink:href="#5"/><use xlink:href="#6" y="2.171"/><use xlink:href="#7" y="4.342"/><use xlink:href="#8" y="6.513"/><use xlink:href="#9" y="8.684"/></svg><svg x="1924"><use xlink:href="#a"/><use xlink:href="#b" x="14.996" y="10.83"/><use xlink:href="#5"/><use xlink:href="#6" y="2.171"/><use xlink:href="#7" y="4.342"/><use xlink:href="#8" y="6.513"/><use xlink:href="#9" y="8.684"/><use xlink:href="#1" y="10.855"/></svg><svg x="1998"><use xlink:href="#a"/><use xlink:href="#b" x="15.996" y="10.83"/><use xlink:href="#5"/><use xlink:href="#6" y="2.171"/><use xlink:href="#7" y="4.342"/><use xlink:href="#8" y="6.513"/><use xlink:href="#9" y="8.684"/><text y="12.525" class="c">~/p/pagebreak</text><text x="13.026" y="12.525" class="d">$</text><text x="15.03" y="12.525" class="e">p</text></svg><svg x="2072"><use xlink:href="#a"/><use xlink:href="#b" x="16.996" y="10.83"/><use xlink:href="#5"/><use xlink:href="#6" y="2.171"/><use xlink:href="#7" y="4.342"/><use xlink:href="#8" y="6.513"/><use xlink:href="#9" y="8.684"/><text y="12.525" class="c">~/p/pagebreak</text><text x="13.026" y="12.525" class="d">$</text><text x="15.03" y="12.525" class="e">pa</text></svg><svg x="2146"><use xlink:href="#a"/><use xlink:href="#b" x="17.996" y="10.83"/><use xlink:href="#5"/><use xlink:href="#6" y="2.171"/><use xlink:href="#7" y="4.342"/><use xlink:href="#8" y="6.513"/><use xlink:href="#9" y="8.684"/><text y="12.525" class="c">~/p/pagebreak</text><text x="13.026" y="12.525" class="d">$</text><text x="15.03" y="12.525" class="e">pag</text></svg><svg x="2220"><use xlink:href="#a"/><use xlink:href="#b" x="18.996" y="10.83"/><use xlink:href="#5"/><use xlink:href="#6" y="2.171"/><use xlink:href="#7" y="4.342"/><use xlink:href="#8" y="6.513"/><use xlink:href="#9" y="8.684"/><text y="12.525" class="c">~/p/pagebreak</text><text x="13.026" y="12.525" class="d">$</text><text x="15.03" y="12.525" class="e">page</text></svg><svg x="2294"><use xlink:href="#a"/><use xlink:href="#b" x="19.996" y="10.83"/><use xlink:href="#5"/><use xlink:href="#6" y="2.171"/><use xlink:href="#7" y="4.342"/><use xlink:href="#8" y="6.513"/><use xlink:href="#9" y="8.684"/><text y="12.525" class="c">~/p/pagebreak</text><text x="13.026" y="12.525" class="d">$</text><text x="15.03" y="12.525" class="e">pageb</text></svg><svg x="2368"><use xlink:href="#a"/><use xlink:href="#b" x="20.996" y="10.83"/><use xlink:href="#5"/><use xlink:href="#6" y="2.171"/><use xlink:href="#7" y="4.342"/><use xlink:href="#8" y="6.513"/><use xlink:href="#9" y="8.684"/><text y="12.525" class="c">~/p/pagebreak</text><text x="13.026" y="12.525" class="d">$</text><text x="15.03" y="12.525" class="e">pagebr</text></svg><svg x="2442"><use xlink:href="#a"/><use xlink:href="#b" x="21.996" y="10.83"/><use xlink:href="#5"/><use xlink:href="#6" y="2.171"/><use xlink:href="#7" y="4.342"/><use xlink:href="#8" y="6.513"/><use xlink:href="#9" y="8.684"/><text y="12.525" class="c">~/p/pagebreak</text><text x="13.026" y="12.525" class="d">$</text><text x="15.03" y="12.525" class="e">pagebre</text></svg><svg x="2516"><use xlink:href="#a"/><use xlink:href="#b" x="22.996" y="10.83"/><use xlink:href="#5"/><use xlink:href="#6" y="2.171"/><use xlink:href="#7" y="4.342"/><use xlink:href="#8" y="6.513"/><use xlink:href="#9" y="8.684"/><text y="12.525" class="c">~/p/pagebreak</text><text x="13.026" y="12.525" class="d">$</text><text x="15.03" y="12.525" class="e">pagebrea</text></svg><svg x="2590"><use xlink:href="#a"/><use xlink:href="#b" x="23.996" y="10.83"/><use xlink:href="#5"/><use xlink:href="#6" y="2.171"/><use xlink:href="#7" y="4.342"/><use xlink:href="#8" y="6.513"/><use xlink:href="#9" y="8.684"/><use xlink:href="#11" y="10.855"/></svg><svg x="2664"><use xlink:href="#a"/><use xlink:href="#b" x="-.004" y="13.001"/><use xlink:href="#5"/><use xlink:href="#6" y="2.171"/><use xlink:href="#7" y="4.342"/><use xlink:href="#8" y="6.513"/><use xlink:href="#9" y="8.684"/><use xlink:href="#11" y="10.855"/></svg><svg x="2738"><use xlink:href="#a"/><use xlink:href="#b" x="-.004" y="34.711"/></svg><svg x="2812"><use xlink:href="#a"/><use xlink:href="#b" x="14.996" y="34.711"/><use xlink:href="#1" y="34.736"/></svg><svg x="2886"><use xlink:href="#a"/><use xlink:href="#b" x="15.996" y="34.711"/><text y="36.406" class="c">~/p/pagebreak</text><text x="13.026" y="36.406" class="d">$</text><text x="15.03" y="36.406" class="e">e</text></svg><svg x="2960"><use xlink:href="#a"/><use xlink:href="#b" x="16.996" y="34.711"/><text y="36.406" class="c">~/p/pagebreak</text><text x="13.026" y="36.406" class="d">$</text><text x="15.03" y="36.406" class="e">ex</text></svg><svg x="3034"><use xlink:href="#a"/><use xlink:href="#b" x="17.996" y="34.711"/><text y="36.406" class="c">~/p/pagebreak</text><text x="13.026" y="36.406" class="d">$</text><text x="15.03" y="36.406" class="e">exi</text></svg><svg x="3108"><use xlink:href="#a"/><use xlink:href="#b" x="18.996" y="34.711"/><use xlink:href="#12" y="34.736"/></svg><svg x="3182"><use xlink:href="#a"/><use xlink:href="#b" x="-.004" y="34.711"/><use xlink:href="#12" y="32.565"/></svg><svg x="3256"><use xlink:href="#a"/><use xlink:href="#b" x="-.004" y="34.711"/><use xlink:href="#12" y="30.394"/><text y="34.235" class="e">exit</text></svg></svg></g></g></svg></svg>